<svg xmlns="http://www.w3.org/2000/svg" version="1.1" xmlns:xlink="http://www.w3.org/1999/xlink" xmlns:svgjs="http://svgjs.dev/svgjs" width="1500" height="284" viewBox="0 0 1500 284"><g transform="matrix(1,0,0,1,-0.9090909090911055,-0.26934291213862593)"><svg viewBox="0 0 396 75" data-background-color="#ffffff" preserveAspectRatio="xMidYMid meet" height="284" width="1500" xmlns="http://www.w3.org/2000/svg" xmlns:xlink="http://www.w3.org/1999/xlink"><g id="tight-bounds" transform="matrix(1,0,0,1,0.24000000000003752,0.07112929017745273)"><svg viewBox="0 0 395.5199999999999 74.8577414196451" height="74.8577414196451" width="395.5199999999999"><g><svg viewBox="0 0 503.82847292276426 95.35664832601879" height="74.8577414196451" width="395.5199999999999"><g transform="matrix(1,0,0,1,108.30847292276431,12.47474153873712)"><svg viewBox="0 0 395.52 70.40716524854454" height="70.40716524854454" width="395.52"><g id="textblocktransform"><svg viewBox="0 0 395.52 70.40716524854454" height="70.40716524854454" width="395.52" id="textblock"><g><svg viewBox="0 0 395.52 70.40716524854454" height="70.40716524854454" width="395.52"><g transform="matrix(1,0,0,1,0,0)"><svg width="395.52" viewBox="2.2 -39.2 223.28 39.75" height="70.40716524854454" data-palette-color="#3171d7"><path d="M11.75-18.1L11.75-7.75Q11.75-3.7 15.2-3.7L15.2-3.7Q17.95-3.7 19.68-6.3 21.4-8.9 21.4-12.95 21.4-17 19.9-19.18 18.4-21.35 16.3-21.35L16.3-21.35Q14.95-21.35 13.73-20.48 12.5-19.6 11.75-18.1L11.75-18.1ZM11.75-33.25L11.75-33.25 11.75-23.4Q14.4-26.7 18.82-26.7 23.25-26.7 26.28-23.3 29.3-19.9 29.3-14.1L29.3-14.1Q29.3-7.25 25.25-3.35 21.2 0.55 14.75 0.55L14.75 0.55Q9.4 0.55 6.65-1.28 3.9-3.1 3.9-7.75L3.9-7.75 3.9-33.55Q3.9-36.05 2.2-37.1L2.2-37.1Q4.1-39.2 6.8-39.2L6.8-39.2Q11.75-39.2 11.75-33.25ZM46-16.55Q46.9-16.65 47.35-17.13 47.8-17.6 47.8-18.95 47.8-20.3 47.02-21.43 46.25-22.55 44.9-22.55 43.55-22.55 42.35-20.85 41.15-19.15 40.75-15.9L40.75-15.9 46-16.55ZM46.85-4.9L46.85-4.9Q51-4.9 53.8-8.05L53.8-8.05Q54.95-7.55 54.95-5.95L54.95-5.95Q54.95-3.55 52.1-1.5 49.25 0.55 45.4 0.55L45.4 0.55Q39.45 0.55 36.12-2.7 32.8-5.95 32.8-12.03 32.8-18.1 36.45-22.4 40.1-26.7 45.7-26.7L45.7-26.7Q50-26.7 52.8-23.93 55.6-21.15 55.6-17.6L55.6-17.6Q55.6-14.85 54.3-13.65 53-12.45 49.85-12.35L49.85-12.35 40.6-12.1Q40.95-4.9 46.85-4.9ZM61-5.4L61-5.4 61-21.05Q61-23.65 59.3-24.55L59.3-24.55Q61.2-26.7 63.9-26.7L63.9-26.7Q68.34-26.7 68.8-21.9L68.8-21.9Q70.8-26.7 75.45-26.7L75.45-26.7Q77.8-26.7 79.32-25.3 80.84-23.9 80.84-21.55 80.84-19.2 79.67-17.82 78.5-16.45 76.09-16.45L76.09-16.45Q75.8-16.45 74.8-16.55L74.8-16.55Q75-17.45 75-17.7L75-17.7Q75-18.95 74.27-19.68 73.55-20.4 72.5-20.4L72.5-20.4Q69.8-20.4 68.84-16.3L68.84-16.3 68.84-5.15Q68.84-2.45 70.5-1.6L70.5-1.6Q68.59 0.55 65.9 0.55L65.9 0.55Q61 0.55 61-5.4ZM100.34-6.35L100.34-21.1Q99.19-22.4 96.94-22.4 94.69-22.4 93.02-19.93 91.34-17.45 91.34-13.1L91.34-13.1Q91.34-4.4 96.69-4.4L96.69-4.4Q99.04-4.4 100.34-6.35L100.34-6.35ZM108.19-33.25L108.19-33.25 108.19-5.15Q108.19-2.45 109.84-1.6L109.84-1.6Q107.94 0.55 105.24 0.55L105.24 0.55Q101.89 0.55 100.84-2.15L100.84-2.15Q99.74-0.9 98.02-0.18 96.29 0.55 94.64 0.55L94.64 0.55Q89.69 0.55 86.47-2.9 83.24-6.35 83.24-12.38 83.24-18.4 86.89-22.55 90.54-26.7 96.74-26.7L96.74-26.7Q98.49-26.7 100.34-26.3L100.34-26.3 100.34-33.55Q100.34-36.05 98.64-37.1L98.64-37.1Q100.54-39.2 103.24-39.2L103.24-39.2Q108.19-39.2 108.19-33.25ZM119.94-39.2Q121.89-39.2 123.17-38.02 124.44-36.85 124.44-34.93 124.44-33 122.82-31.4 121.19-29.8 119.09-29.8 116.99-29.8 115.72-31.03 114.44-32.25 114.44-34.25 114.44-36.25 116.22-37.73 117.99-39.2 119.94-39.2ZM123.54-20.75L123.54-20.75 123.54-5.15Q123.54-2.45 125.19-1.6L125.19-1.6Q123.29 0.55 120.59 0.55L120.59 0.55Q115.69 0.55 115.69-5.4L115.69-5.4 115.69-21.05Q115.69-23.65 113.99-24.55L113.99-24.55Q115.89-26.7 118.52-26.7 121.14-26.7 122.34-25.25 123.54-23.8 123.54-20.75ZM138.89-33.25L138.89-33.25 138.89-16.4Q148.19-20.75 148.19-26.7L148.19-26.7Q151.54-26.7 153.59-25.35 155.64-24 155.64-21.58 155.64-19.15 152.91-17.3 150.19-15.45 144.34-13.7L144.34-13.7Q149.19-8.8 151.54-7.45 153.89-6.1 156.79-6.1L156.79-6.1Q156.79-2.95 155.29-1.2 153.79 0.55 151.14 0.55 148.49 0.55 145.71-2.13 142.94-4.8 138.89-11.35L138.89-11.35 138.89-5.15Q138.89-2.45 140.54-1.6L140.54-1.6Q138.64 0.55 135.94 0.55L135.94 0.55Q131.04 0.55 131.04-5.4L131.04-5.4 131.04-33.55Q131.04-36.05 129.34-37.1L129.34-37.1Q131.24-39.2 133.94-39.2L133.94-39.2Q138.89-39.2 138.89-33.25ZM169.49-6.85L169.49-6.85Q169.49-4.4 172.29-4.4L172.29-4.4Q174.34-4.4 175.99-6.3L175.99-6.3 175.99-11.15Q169.49-10.8 169.49-6.85ZM183.84-17.7L183.84-17.7 183.84-6.35Q183.84-3.2 186.54-2.35L186.54-2.35Q185.64-1.1 184.11-0.28 182.59 0.55 180.89 0.55L180.89 0.55Q177.19 0.55 176.29-2.75L176.29-2.75Q173.19 0.55 168.54 0.55L168.54 0.55Q165.09 0.55 163.04-1.15 160.99-2.85 160.99-5.95L160.99-5.95Q160.99-9.75 164.96-12.03 168.94-14.3 175.99-14.4L175.99-14.4 175.99-19.15Q175.99-22.5 173.29-22.5L173.29-22.5Q172.19-22.5 171.46-21.83 170.74-21.15 170.74-20.03 170.74-18.9 171.54-17.95L171.54-17.95Q169.84-16.15 167.26-16.15 164.69-16.15 163.46-17.3 162.24-18.45 162.24-20.3L162.24-20.3Q162.24-23.1 165.66-24.9 169.09-26.7 173.66-26.7 178.24-26.7 181.04-24.55 183.84-22.4 183.84-17.7ZM191.33-5.4L191.33-5.4 191.33-21.05Q191.33-23.65 189.63-24.55L189.63-24.55Q191.53-26.7 194.23-26.7L194.23-26.7Q198.68-26.7 199.13-21.9L199.13-21.9Q201.13-26.7 205.78-26.7L205.78-26.7Q208.13-26.7 209.66-25.3 211.18-23.9 211.18-21.55 211.18-19.2 210.01-17.82 208.83-16.45 206.43-16.45L206.43-16.45Q206.13-16.45 205.13-16.55L205.13-16.55Q205.33-17.45 205.33-17.7L205.33-17.7Q205.33-18.95 204.61-19.68 203.88-20.4 202.83-20.4L202.83-20.4Q200.13-20.4 199.18-16.3L199.18-16.3 199.18-5.15Q199.18-2.45 200.83-1.6L200.83-1.6Q198.93 0.55 196.23 0.55L196.23 0.55Q191.33 0.55 191.33-5.4ZM220.23-39.2Q222.18-39.2 223.46-38.02 224.73-36.85 224.73-34.93 224.73-33 223.11-31.4 221.48-29.8 219.38-29.8 217.28-29.8 216.01-31.03 214.73-32.25 214.73-34.25 214.73-36.25 216.51-37.73 218.28-39.2 220.23-39.2ZM223.83-20.75L223.83-20.75 223.83-5.15Q223.83-2.45 225.48-1.6L225.48-1.6Q223.58 0.55 220.88 0.55L220.88 0.55Q215.98 0.55 215.98-5.4L215.98-5.4 215.98-21.05Q215.98-23.65 214.28-24.55L214.28-24.55Q216.18-26.7 218.81-26.7 221.43-26.7 222.63-25.25 223.83-23.8 223.83-20.75Z" opacity="1" transform="matrix(1,0,0,1,0,0)" fill="#3171d7" class="wordmark-text-0" data-fill-palette-color="primary" id="text-0"></path></svg></g></svg></g></svg></g></svg></g><g><svg viewBox="0 0 91.68703097954891 95.35664832601879" height="95.35664832601879" width="91.68703097954891"><g><svg xmlns="http://www.w3.org/2000/svg" xmlns:xlink="http://www.w3.org/1999/xlink" version="1.1" x="0" y="0" viewBox="-401.1787753826796 284.54851628329885 26.29891443222573 27.351483716701182" enable-background="new -404 282.3 32 32" xml:space="preserve" height="95.35664832601879" width="91.68703097954891" class="icon-icon-0" data-fill-palette-color="accent" id="icon-0"></svg></g></svg></g></svg></g><defs></defs><mask id="4e36d123-2e36-4f30-8480-dcc1a0218745"><g id="SvgjsG1031"><svg viewBox="0 0 395.5199999999999 74.8577414196451" height="74.8577414196451" width="395.5199999999999"><g><svg viewBox="0 0 503.82847292276426 95.35664832601879" height="74.8577414196451" width="395.5199999999999"><g transform="matrix(1,0,0,1,108.30847292276431,12.47474153873712)"><svg viewBox="0 0 395.52 70.40716524854454" height="70.40716524854454" width="395.52"><g id="SvgjsG1030"><svg viewBox="0 0 395.52 70.40716524854454" height="70.40716524854454" width="395.52" id="SvgjsSvg1029"><g><svg viewBox="0 0 395.52 70.40716524854454" height="70.40716524854454" width="395.52"><g transform="matrix(1,0,0,1,0,0)"><svg width="395.52" viewBox="2.2 -39.2 223.28 39.75" height="70.40716524854454" data-palette-color="#3171d7"><path d="M11.75-18.1L11.75-7.75Q11.75-3.7 15.2-3.7L15.2-3.7Q17.95-3.7 19.68-6.3 21.4-8.9 21.4-12.95 21.4-17 19.9-19.18 18.4-21.35 16.3-21.35L16.3-21.35Q14.95-21.35 13.73-20.48 12.5-19.6 11.75-18.1L11.75-18.1ZM11.75-33.25L11.75-33.25 11.75-23.4Q14.4-26.7 18.82-26.7 23.25-26.7 26.28-23.3 29.3-19.9 29.3-14.1L29.3-14.1Q29.3-7.25 25.25-3.35 21.2 0.55 14.75 0.55L14.75 0.55Q9.4 0.55 6.65-1.28 3.9-3.1 3.9-7.75L3.9-7.75 3.9-33.55Q3.9-36.05 2.2-37.1L2.2-37.1Q4.1-39.2 6.8-39.2L6.8-39.2Q11.75-39.2 11.75-33.25ZM46-16.55Q46.9-16.65 47.35-17.13 47.8-17.6 47.8-18.95 47.8-20.3 47.02-21.43 46.25-22.55 44.9-22.55 43.55-22.55 42.35-20.85 41.15-19.15 40.75-15.9L40.75-15.9 46-16.55ZM46.85-4.9L46.85-4.9Q51-4.9 53.8-8.05L53.8-8.05Q54.95-7.55 54.95-5.95L54.95-5.95Q54.95-3.55 52.1-1.5 49.25 0.55 45.4 0.55L45.4 0.55Q39.45 0.55 36.12-2.7 32.8-5.95 32.8-12.03 32.8-18.1 36.45-22.4 40.1-26.7 45.7-26.7L45.7-26.7Q50-26.7 52.8-23.93 55.6-21.15 55.6-17.6L55.6-17.6Q55.6-14.85 54.3-13.65 53-12.45 49.85-12.35L49.85-12.35 40.6-12.1Q40.95-4.9 46.85-4.9ZM61-5.4L61-5.4 61-21.05Q61-23.65 59.3-24.55L59.3-24.55Q61.2-26.7 63.9-26.7L63.9-26.7Q68.34-26.7 68.8-21.9L68.8-21.9Q70.8-26.7 75.45-26.7L75.45-26.7Q77.8-26.7 79.32-25.3 80.84-23.9 80.84-21.55 80.84-19.2 79.67-17.82 78.5-16.45 76.09-16.45L76.09-16.45Q75.8-16.45 74.8-16.55L74.8-16.55Q75-17.45 75-17.7L75-17.7Q75-18.95 74.27-19.68 73.55-20.4 72.5-20.4L72.5-20.4Q69.8-20.4 68.84-16.3L68.84-16.3 68.84-5.15Q68.84-2.45 70.5-1.6L70.5-1.6Q68.59 0.55 65.9 0.55L65.9 0.55Q61 0.55 61-5.4ZM100.34-6.35L100.34-21.1Q99.19-22.4 96.94-22.4 94.69-22.4 93.02-19.93 91.34-17.45 91.34-13.1L91.34-13.1Q91.34-4.4 96.69-4.4L96.69-4.4Q99.04-4.4 100.34-6.35L100.34-6.35ZM108.19-33.25L108.19-33.25 108.19-5.15Q108.19-2.45 109.84-1.6L109.84-1.6Q107.94 0.55 105.24 0.55L105.24 0.55Q101.89 0.55 100.84-2.15L100.84-2.15Q99.74-0.9 98.02-0.18 96.29 0.55 94.64 0.55L94.64 0.55Q89.69 0.55 86.47-2.9 83.24-6.35 83.24-12.38 83.24-18.4 86.89-22.55 90.54-26.7 96.74-26.7L96.74-26.7Q98.49-26.7 100.34-26.3L100.34-26.3 100.34-33.55Q100.34-36.05 98.64-37.1L98.64-37.1Q100.54-39.2 103.24-39.2L103.24-39.2Q108.19-39.2 108.19-33.25ZM119.94-39.2Q121.89-39.2 123.17-38.02 124.44-36.85 124.44-34.93 124.44-33 122.82-31.4 121.19-29.8 119.09-29.8 116.99-29.8 115.72-31.03 114.44-32.25 114.44-34.25 114.44-36.25 116.22-37.73 117.99-39.2 119.94-39.2ZM123.54-20.75L123.54-20.75 123.54-5.15Q123.54-2.45 125.19-1.6L125.19-1.6Q123.29 0.55 120.59 0.55L120.59 0.55Q115.69 0.55 115.69-5.4L115.69-5.4 115.69-21.05Q115.69-23.65 113.99-24.55L113.99-24.55Q115.89-26.7 118.52-26.7 121.14-26.7 122.34-25.25 123.54-23.8 123.54-20.75ZM138.89-33.25L138.89-33.25 138.89-16.4Q148.19-20.75 148.19-26.7L148.19-26.7Q151.54-26.7 153.59-25.35 155.64-24 155.64-21.58 155.64-19.15 152.91-17.3 150.19-15.45 144.34-13.7L144.34-13.7Q149.19-8.8 151.54-7.45 153.89-6.1 156.79-6.1L156.79-6.1Q156.79-2.95 155.29-1.2 153.79 0.55 151.14 0.55 148.49 0.55 145.71-2.13 142.94-4.8 138.89-11.35L138.89-11.35 138.89-5.15Q138.89-2.45 140.54-1.6L140.54-1.6Q138.64 0.55 135.94 0.55L135.94 0.55Q131.04 0.55 131.04-5.4L131.04-5.4 131.04-33.55Q131.04-36.05 129.34-37.1L129.34-37.1Q131.24-39.2 133.94-39.2L133.94-39.2Q138.89-39.2 138.89-33.25ZM169.49-6.85L169.49-6.85Q169.49-4.4 172.29-4.4L172.29-4.4Q174.34-4.4 175.99-6.3L175.99-6.3 175.99-11.15Q169.49-10.8 169.49-6.85ZM183.84-17.7L183.84-17.7 183.84-6.35Q183.84-3.2 186.54-2.35L186.54-2.35Q185.64-1.1 184.11-0.28 182.59 0.55 180.89 0.55L180.89 0.55Q177.19 0.55 176.29-2.75L176.29-2.75Q173.19 0.55 168.54 0.55L168.54 0.55Q165.09 0.55 163.04-1.15 160.99-2.85 160.99-5.95L160.99-5.95Q160.99-9.75 164.96-12.03 168.94-14.3 175.99-14.4L175.99-14.4 175.99-19.15Q175.99-22.5 173.29-22.5L173.29-22.5Q172.19-22.5 171.46-21.83 170.74-21.15 170.74-20.03 170.74-18.9 171.54-17.95L171.54-17.95Q169.84-16.15 167.26-16.15 164.69-16.15 163.46-17.3 162.24-18.45 162.24-20.3L162.24-20.3Q162.24-23.1 165.66-24.9 169.09-26.7 173.66-26.7 178.24-26.7 181.04-24.55 183.84-22.4 183.84-17.7ZM191.33-5.4L191.33-5.4 191.33-21.05Q191.33-23.65 189.63-24.55L189.63-24.55Q191.53-26.7 194.23-26.7L194.23-26.7Q198.68-26.7 199.13-21.9L199.13-21.9Q201.13-26.7 205.78-26.7L205.78-26.7Q208.13-26.7 209.66-25.3 211.18-23.9 211.18-21.55 211.18-19.2 210.01-17.82 208.83-16.45 206.43-16.45L206.43-16.45Q206.13-16.45 205.13-16.55L205.13-16.55Q205.33-17.45 205.33-17.7L205.33-17.7Q205.33-18.95 204.61-19.68 203.88-20.4 202.83-20.4L202.83-20.4Q200.13-20.4 199.18-16.3L199.18-16.3 199.18-5.15Q199.18-2.45 200.83-1.6L200.83-1.6Q198.93 0.55 196.23 0.55L196.23 0.55Q191.33 0.55 191.33-5.4ZM220.23-39.2Q222.18-39.2 223.46-38.02 224.73-36.85 224.73-34.93 224.73-33 223.11-31.4 221.48-29.8 219.38-29.8 217.28-29.8 216.01-31.03 214.73-32.25 214.73-34.25 214.73-36.25 216.51-37.73 218.28-39.2 220.23-39.2ZM223.83-20.75L223.83-20.75 223.83-5.15Q223.83-2.45 225.48-1.6L225.48-1.6Q223.58 0.55 220.88 0.55L220.88 0.55Q215.98 0.55 215.98-5.4L215.98-5.4 215.98-21.05Q215.98-23.65 214.28-24.55L214.28-24.55Q216.18-26.7 218.81-26.7 221.43-26.7 222.63-25.25 223.83-23.8 223.83-20.75Z" opacity="1" transform="matrix(1,0,0,1,0,0)" fill="black" class="wordmark-text-0" id="SvgjsPath1028"></path></svg></g></svg></g></svg></g></svg></g><g><svg viewBox="0 0 91.68703097954891 95.35664832601879" height="95.35664832601879" width="91.68703097954891"><g><svg xmlns="http://www.w3.org/2000/svg" xmlns:xlink="http://www.w3.org/1999/xlink" version="1.1" x="0" y="0" viewBox="-401.1787753826796 284.54851628329885 26.29891443222573 27.351483716701182" enable-background="new -404 282.3 32 32" xml:space="preserve" height="95.35664832601879" width="91.68703097954891" class="icon-icon-0" data-fill-palette-color="accent" id="SvgjsSvg1027"><g fill="white"><path d="M-396 292.8c0.5-0.8 0.5-1.7 0.1-2.5-0.2-0.5-0.6-0.9-1.1-1.1-0.3-0.2-0.6-0.3-1-0.3-0.1 0-0.2 0-0.4 0-0.9 0-1.8 0.5-2.3 1.3-0.6 1-0.4 2.1 0.2 3 0.2 0.3 0.5 0.5 0.8 0.7 0.4 0.2 0.9 0.4 1.3 0.4 0.1 0 0.1 0 0.2 0C-397.2 294-396.4 293.6-396 292.8z" fill="white"></path><path d="M-395.5 304.9c-0.5-0.5-1.3-0.5-1.8 0-0.5 0.5-0.5 1.3 0 1.8 1.5 1.4 3.2 2.5 5.1 3.2 0-0.2 0-0.4 0-0.6 0-0.7 0.2-1.3 0.5-1.9C-393.1 306.8-394.4 306-395.5 304.9z" fill="white"></path><path d="M-380.5 304.9c-1.1 1.1-2.4 1.9-3.8 2.4 0.3 0.6 0.5 1.2 0.5 1.9 0 0.2 0 0.4-0.1 0.6 2-0.6 3.7-1.7 5.2-3.2 0.5-0.5 0.5-1.3 0-1.8C-379.2 304.4-380 304.4-380.5 304.9z" fill="white"></path><path d="M-398.5 295.6c-0.7 0-1.3-0.2-1.9-0.6-0.2-0.1-0.3-0.2-0.5-0.3-0.4 2-0.4 4.1 0.2 6.1 0.1 0.6 0.7 0.9 1.2 0.9 0.1 0 0.2 0 0.3 0 0.7-0.2 1.1-0.9 0.9-1.5C-398.7 298.6-398.7 297.1-398.5 295.6z" fill="white"></path><path d="M-389.9 285.6c-0.2-0.7-0.9-1.1-1.5-0.9-2 0.5-3.8 1.5-5.3 2.9 0.2 0.1 0.4 0.2 0.5 0.3 0.6 0.3 1.1 0.8 1.4 1.4 1.2-1 2.5-1.7 4-2.1C-390.1 286.9-389.7 286.3-389.9 285.6z" fill="white"></path><path d="M-379.8 287.8c0.2-0.1 0.4-0.2 0.5-0.3-1.5-1.4-3.3-2.3-5.3-2.9-0.7-0.2-1.3 0.2-1.5 0.9-0.2 0.7 0.2 1.3 0.9 1.5 1.5 0.4 2.8 1.1 4 2.1C-380.9 288.7-380.4 288.2-379.8 287.8z" fill="white"></path><path d="M-375.2 294.7c-0.2 0.1-0.3 0.2-0.5 0.4-0.6 0.3-1.2 0.5-1.9 0.6 0.3 1.5 0.2 3.1-0.2 4.5-0.2 0.7 0.2 1.3 0.9 1.5 0.1 0 0.2 0 0.3 0 0.5 0 1.1-0.4 1.2-0.9C-374.8 298.8-374.7 296.7-375.2 294.7z" fill="white"></path><path d="M-376.4 293.8c0.3-0.2 0.6-0.4 0.8-0.7 0.6-0.8 0.7-2 0.2-2.9-0.5-0.9-1.4-1.3-2.3-1.3-0.1 0-0.2 0-0.3 0-0.3 0-0.7 0.2-1 0.3-0.5 0.3-0.8 0.7-1 1.1-0.4 0.8-0.4 1.7 0.1 2.5 0.5 0.8 1.3 1.3 2.2 1.3 0 0 0.1 0 0.1 0C-377.3 294.1-376.8 294-376.4 293.8z" fill="white"></path><path d="M-388 306.6c-0.9 0-1.8 0.5-2.2 1.2-0.3 0.4-0.4 0.9-0.4 1.5 0 0.4 0.1 0.7 0.2 1 0.4 1 1.4 1.6 2.5 1.6 1.1 0 2-0.7 2.5-1.6 0.1-0.3 0.2-0.7 0.2-1 0-0.5-0.2-1-0.4-1.5C-386.3 307-387.1 306.6-388 306.6z" fill="white"></path></g></svg></g></svg></g></svg></g><defs><mask></mask></defs></svg><rect width="395.5199999999999" height="74.8577414196451" fill="black" stroke="none" visibility="hidden"></rect></g></mask><linearGradient x1="0" x2="1" y1="0.578" y2="0.595" id="1f1d39d7-6219-4792-8fa3-c632a2fa06c5"><stop stop-color="#6ee2f5" offset="0"></stop><stop stop-color="#6454f0" offset="1"></stop></linearGradient><rect width="395.5199999999999" height="74.8577414196451" fill="url(#1f1d39d7-6219-4792-8fa3-c632a2fa06c5)" mask="url(#4e36d123-2e36-4f30-8480-dcc1a0218745)" data-fill-palette-color="accent"></rect></svg><rect width="395.5199999999999" height="74.8577414196451" fill="none" stroke="none" visibility="hidden"></rect></g></svg></g></svg>